<svg xmlns="http://www.w3.org/2000/svg" viewBox="0 0 24 24" width="24" height="24" role="img" aria-label="Basecamp">
  <circle cx="12" cy="12" r="10" fill="#10162F"/>
  <path d="M3.2 15.2c0-.5 1.6-3.8 3.3-3.8.8 0 1.4.6 1.9 1.1.4.4.7.7 1 .7.5 0 1.4-1 2.1-1.9.9-1.1 1.5-1.8 2.1-1.8 1.6 0 4.8 4.3 4.5 5.7-.1.7-.7 3.6-6.1 3.6-5.5 0-6.5-2.4-6.8-3.6z" fill="#FFCC4D"/>
  <path d="M2.2 16c2.2 3.4 7.3 4 9.8 4 2.5 0 7.6-.6 9.8-4-.4-5.5-4.1-12-9.8-12-5.8 0-9.4 6.5-9.8 12z" fill="none" stroke="#10162F" stroke-width="1.2" stroke-linejoin="round"/>
</svg>
